<svg xmlns="http://www.w3.org/2000/svg" width="81" height="24" viewBox="0 0 81 24">
    <defs>
        <style>
            .cls-1{fill:#fff}
        </style>
    </defs>
    <g id="그룹_1391" transform="translate(-10.867 -16.338)">
        <path id="패스_682" d="M22.955 16.47a11.987 11.987 0 1 0 .025 23.972 12.1 12.1 0 0 0 12.092-11.665A11.977 11.977 0 0 0 22.955 16.47zm0 18.225a6.16 6.16 0 1 1 6.2-6.166 6.238 6.238 0 0 1-6.197 6.171z" class="cls-1" transform="translate(0 -0.104)"/>
        <path id="패스_683" d="M197.423 40.983c-2.269-.038-4.54-.016-6.81-.02h-.393l-.037-.095c.105-.09.218-.173.315-.27q4.493-4.457 8.982-8.918a3.06 3.06 0 0 0 .666-3.4 3.111 3.111 0 0 0-2.849-1.893q-7.289-.006-14.578 0a3.1 3.1 0 0 0-.849 6.084 3.5 3.5 0 0 0 .981.134h6.729l.089.125a2.871 2.871 0 0 0-.366.265q-4.441 4.4-8.877 8.808a3.016 3.016 0 0 0-.949 2.687 3.117 3.117 0 0 0 3.3 2.7q7.136.005 14.272 0a5.135 5.135 0 0 0 .647-.05 3.093 3.093 0 0 0-.272-6.159z" class="cls-1" transform="translate(-142.859 -8.504)"/>
        <path id="패스_684" d="M420.437 32.087a4.7 4.7 0 0 0-2.2 1.069 6.2 6.2 0 0 1-10.1-4.1 5.852 5.852 0 0 1 3.055-5.934 5.912 5.912 0 0 1 6.662.29 3.97 3.97 0 0 0 2.892.7 2.72 2.72 0 0 0 2.331-1.969 2.783 2.783 0 0 0-.705-2.462 8.132 8.132 0 0 0-2.985-2.062 11.872 11.872 0 0 0-17.076 12.418c.836 5.89 5.954 10.288 13.326 10.288a11.079 11.079 0 0 0 6.679-3.08 3.333 3.333 0 0 0 1.182-2.616 2.648 2.648 0 0 0-3.061-2.542z" class="cls-1" transform="translate(-331.627 0)"/>
        <path id="패스_685" d="M343.3 23.408a3.122 3.122 0 0 0-2.794 3.1q-.007 3.855 0 7.711v7.673a3.132 3.132 0 1 0 6.263.017V26.602a3.428 3.428 0 0 0-.1-.827 3.142 3.142 0 0 0-3.369-2.367z" class="cls-1" transform="translate(-279.289 -5.967)"/>
    </g>
</svg>
